<svg width="500" height="370" viewBox="0 0 500 370" fill="none" xmlns="http://www.w3.org/2000/svg">
<g clip-path="url(#clip0_1195_5366)">
<path d="M500 0H0V370H500V0Z" fill="#E22F27"/>
<path d="M232.843 180.584V160.209C231.454 161.024 227.124 163.388 221.895 163.388C216.503 163.388 211.029 160.861 209.477 160.128V180.584C209.477 183.11 208.579 185.066 206.863 186.37C206.209 186.859 205.556 187.267 204.902 187.593C203.513 188.163 202.043 188.408 200.409 188.489C198.938 188.489 197.631 188.245 196.324 187.756C195.507 187.43 194.69 186.941 194.036 186.37C192.239 184.985 191.422 183.029 191.422 180.584V154.83C191.422 150.919 190.686 147.251 189.379 143.747C187.99 140.242 186.029 137.145 183.66 134.537C181.209 131.93 178.268 129.811 174.918 128.262C171.569 126.714 167.811 125.98 163.726 125.98C159.886 125.98 156.046 126.795 152.369 128.262C148.693 129.811 145.67 132.174 143.301 135.352L142.729 136.086V127.855H119.281V174.553C119.281 174.879 119.118 175.531 118.873 176.59C118.546 177.813 118.382 178.383 118.219 178.628C117.075 181.725 115.441 184.333 113.317 186.37C111.111 188.408 108.252 189.467 104.657 189.467C101.062 189.467 98.3661 188.245 96.5687 185.881C94.7713 183.436 93.8726 180.584 93.8726 177.405V127.773H70.5066V180.176C70.5066 184.088 71.2419 187.837 72.5491 191.341C73.938 194.846 75.8987 198.024 78.268 200.632C80.6373 203.24 83.6602 205.359 87.0099 206.989C90.4412 208.538 94.1994 209.352 98.2027 209.352C103.023 209.352 107.68 208.13 111.846 205.848C114.543 204.381 116.83 202.344 118.628 199.899L119.199 199.165V207.152H142.647V160.454C142.647 160.291 142.729 159.802 143.056 158.253C143.301 157.112 143.546 156.379 143.709 156.053C144.853 152.956 146.487 150.348 148.611 148.229C150.735 146.11 153.677 145.051 157.271 145.051C160.866 145.051 163.562 146.273 165.278 148.637C166.994 151 167.892 153.852 167.892 157.112V180.013C167.729 180.665 167.647 181.562 167.647 182.621C167.647 200.714 177.696 208.782 200.327 208.782C222.304 208.782 233.007 200.225 233.007 182.621C233.007 182.132 233.007 181.725 233.007 181.317C232.925 181.236 232.843 180.91 232.843 180.584Z" fill="white"/>
<path d="M184.314 106.584L189.216 113.592C197.549 105.198 208.66 100.553 220.425 100.553C232.353 100.553 243.464 105.198 251.798 113.592L256.699 106.584C247.059 96.8039 234.15 91.425 220.425 91.425C206.781 91.425 193.954 96.8039 184.314 106.584Z" fill="white"/>
<path d="M194.853 119.868L199.673 126.306C204.82 121.253 213.48 117.586 220.343 117.586C227.369 117.586 236.111 121.253 241.258 126.306L246.079 119.868C239.706 113.511 229.167 109.029 220.343 109.029C211.683 109.11 201.226 113.511 194.853 119.868Z" fill="white"/>
<path d="M230.637 130.3C227.86 127.447 224.428 125.98 220.425 125.98C216.585 125.98 213.154 127.447 210.376 130.3C207.598 133.152 206.209 136.493 206.209 140.405C206.209 144.317 207.598 147.659 210.376 150.511C213.154 153.363 216.503 154.83 220.425 154.83C224.428 154.83 227.86 153.363 230.637 150.511C233.415 147.659 234.804 144.236 234.804 140.405C234.804 136.575 233.415 133.152 230.637 130.3Z" fill="white"/>
<path d="M230.637 130.3C227.86 127.447 224.428 125.98 220.425 125.98C216.585 125.98 213.154 127.447 210.376 130.3C207.598 133.152 206.209 136.493 206.209 140.405C206.209 144.317 207.598 147.659 210.376 150.511C213.154 153.363 216.503 154.83 220.425 154.83C224.428 154.83 227.86 153.363 230.637 150.511C233.415 147.659 234.804 144.236 234.804 140.405C234.804 136.575 233.415 133.152 230.637 130.3Z" fill="white"/>
<path d="M353.023 125.817H331.127V208.945H353.023V125.817Z" fill="white"/>
<path d="M421.896 166.566C419.281 164.691 416.013 162.98 412.255 161.676C408.497 160.291 404.167 159.15 399.51 158.09C396.65 157.438 394.281 156.868 392.402 156.297C390.523 155.727 389.052 155.075 387.909 154.504C386.765 153.852 385.948 153.119 385.458 152.385C384.967 151.57 384.722 150.674 384.722 149.614V149.37C384.722 147.658 385.539 146.273 387.01 145.132C388.48 144.073 390.686 143.502 393.546 143.502C397.304 143.502 401.226 144.236 405.311 145.621C409.15 146.925 412.99 148.881 416.585 151.407L427.369 136.167C423.039 132.744 418.219 130.136 412.909 128.425C407.435 126.632 401.144 125.654 394.118 125.654C389.216 125.654 384.804 126.306 380.964 127.529C377.124 128.751 373.775 130.625 371.079 132.907C368.382 135.189 366.258 137.879 364.869 141.057C363.48 144.154 362.745 147.658 362.745 151.407V151.652C362.745 155.727 363.562 159.231 365.114 162.002C366.667 164.773 368.873 167.136 371.569 168.929C374.347 170.804 377.614 172.352 381.291 173.575C385.049 174.797 389.134 175.938 393.546 176.916C396.405 177.568 398.775 178.139 400.49 178.791C402.288 179.361 403.758 180.013 404.902 180.665C406.046 181.317 406.863 182.051 407.271 182.784C407.68 183.517 407.925 184.414 407.925 185.392V185.636C407.925 187.674 407.026 189.222 405.229 190.282C403.513 191.341 401.062 191.83 397.876 191.83C388.317 191.83 379.33 188.57 371.079 182.214L359.069 196.557C364.052 200.877 369.771 204.136 376.144 206.337C382.68 208.619 389.788 209.76 397.059 209.76C402.043 209.76 406.618 209.189 410.621 207.967C414.624 206.744 418.137 205.033 420.915 202.832C423.775 200.632 425.98 197.861 427.533 194.683C429.085 191.504 429.902 187.755 429.902 183.68V183.11C429.902 179.361 429.167 176.183 427.86 173.493C426.552 170.804 424.51 168.44 421.896 166.566Z" fill="white"/>
<path d="M286.765 210.167C280.392 210.167 274.428 209.108 268.954 207.07C263.562 205.033 258.824 202.099 254.82 198.432C250.817 194.683 247.712 190.2 245.425 185.066C243.137 179.932 241.994 174.145 241.994 168.033V167.788C241.994 161.921 243.137 156.297 245.343 151.163C247.549 146.029 250.654 141.465 254.494 137.634C258.333 133.804 263.072 130.788 268.464 128.588C273.856 126.388 279.82 125.328 286.111 125.328C293.382 125.328 299.673 126.388 304.984 128.507C310.131 130.544 314.951 133.478 319.281 137.064L306.209 152.711L305.801 153.119C303.431 150.918 301.797 149.859 299.755 148.799C295.997 146.762 291.912 145.784 286.846 145.784C274.592 145.784 264.706 155.645 264.706 167.788C264.706 179.932 274.673 189.793 286.846 189.793C289.869 189.793 293.137 189.141 295.997 187.918L296.16 187.837C297.222 187.429 300.082 186.207 300.082 182.54C300.082 180.095 298.448 177.976 295.997 177.161H284.886V161.106H322.304V181.48C322.304 181.562 322.794 191.504 316.422 198.269L316.258 198.432C312.663 202.262 308.987 205.033 305.147 206.581C298.938 209.271 291.503 210.167 286.765 210.167Z" fill="white"/>
<path d="M91.5032 267.134C91.5032 268.764 91.1764 270.231 90.6045 271.454C89.9509 272.676 89.1339 273.736 88.0718 274.551C87.0097 275.366 85.7842 276.018 84.3953 276.425C83.0064 276.833 81.4542 277.077 79.8202 277.077C78.7581 277.077 77.696 276.996 76.7973 276.833C75.8986 276.67 74.9999 276.425 74.3463 276.181C73.611 275.936 73.0391 275.692 72.5489 275.366C72.0587 275.121 71.7319 274.877 71.4868 274.632C71.2417 274.388 71.1601 274.143 70.9967 273.736C70.915 273.328 70.8333 272.758 70.8333 272.024C70.8333 271.535 70.8332 271.128 70.9149 270.72C70.9149 270.394 70.9966 270.068 71.0783 269.905C71.16 269.661 71.2418 269.579 71.4052 269.416C71.5686 269.253 71.6503 269.253 71.8137 269.253C72.0588 269.253 72.3855 269.416 72.794 269.661C73.2025 269.905 73.7744 270.231 74.428 270.557C75.0816 270.883 75.8169 271.209 76.7973 271.454C77.696 271.698 78.7581 271.861 79.9019 271.861C80.7189 271.861 81.3725 271.78 82.0261 271.617C82.6797 271.454 83.1698 271.128 83.5783 270.802C83.9868 270.476 84.3136 270.068 84.5587 269.498C84.8038 269.009 84.8855 268.438 84.8855 267.786C84.8855 267.053 84.7221 266.483 84.3136 265.912C83.9051 265.423 83.4149 264.934 82.7613 264.527C82.1077 264.119 81.4542 263.793 80.6372 263.386C79.8202 263.06 79.0032 262.652 78.1862 262.245C77.3692 261.837 76.5522 261.43 75.7352 260.941C74.9182 260.452 74.2646 259.881 73.611 259.148C72.9574 258.496 72.4672 257.681 72.0587 256.703C71.6502 255.725 71.4868 254.665 71.4868 253.28C71.4868 251.731 71.7319 250.427 72.3038 249.286C72.8757 248.146 73.611 247.168 74.5914 246.434C75.5718 245.701 76.6339 245.13 77.9411 244.723C79.2483 244.315 80.6372 244.152 82.0261 244.152C82.7614 244.152 83.4966 244.234 84.2319 244.315C84.9672 244.397 85.7025 244.56 86.3561 244.804C87.0097 244.967 87.5816 245.212 88.0718 245.456C88.562 245.701 88.8888 245.864 89.0522 246.027C89.2156 246.19 89.2973 246.353 89.379 246.434C89.4607 246.516 89.4607 246.679 89.5424 246.923C89.5424 247.086 89.6241 247.331 89.6241 247.657C89.6241 247.901 89.6241 248.308 89.6241 248.716C89.6241 249.205 89.6241 249.612 89.6241 249.938C89.6241 250.264 89.5424 250.509 89.5424 250.753C89.4607 250.998 89.379 251.079 89.2973 251.242C89.2156 251.324 89.0522 251.405 88.8888 251.405C88.7254 251.405 88.3986 251.324 88.0718 251.079C87.6633 250.835 87.1731 250.59 86.6012 250.346C86.0293 250.101 85.3757 249.857 84.6404 249.612C83.9051 249.368 83.0881 249.286 82.1894 249.286C81.4541 249.286 80.8823 249.368 80.3921 249.531C79.9019 249.694 79.4117 249.938 79.0849 250.264C78.7581 250.59 78.513 250.916 78.2679 251.324C78.0228 251.731 78.0228 252.22 78.0228 252.628C78.0228 253.361 78.1862 253.932 78.5947 254.421C79.0032 254.91 79.4934 255.399 80.1469 255.806C80.8005 256.214 81.5358 256.54 82.3528 256.947C83.1698 257.273 83.9868 257.681 84.8038 258.088C85.6208 258.496 86.5195 258.903 87.2548 259.392C88.0718 259.881 88.8071 260.452 89.4607 261.185C90.1143 261.837 90.6045 262.652 91.013 263.63C91.4215 264.608 91.5032 265.831 91.5032 267.134Z" fill="white"/>
<path d="M130.719 275.773C130.719 275.936 130.637 276.099 130.555 276.181C130.474 276.262 130.31 276.425 130.065 276.507C129.82 276.588 129.493 276.67 129.167 276.67C128.758 276.67 128.268 276.751 127.696 276.751C127.042 276.751 126.552 276.751 126.144 276.67C125.735 276.588 125.408 276.588 125.163 276.507C124.918 276.425 124.755 276.344 124.673 276.181C124.591 276.099 124.51 275.936 124.51 275.773V262.897C124.51 262.163 124.428 261.511 124.265 260.859C124.101 260.289 123.938 259.718 123.611 259.311C123.366 258.903 122.957 258.577 122.549 258.333C122.14 258.088 121.568 258.007 120.997 258.007C120.261 258.007 119.526 258.251 118.791 258.822C118.055 259.392 117.238 260.207 116.34 261.267V275.692C116.34 275.855 116.258 276.018 116.176 276.099C116.095 276.181 115.931 276.344 115.686 276.425C115.441 276.507 115.114 276.588 114.787 276.588C114.461 276.588 113.889 276.67 113.317 276.67C112.745 276.67 112.255 276.67 111.846 276.588C111.438 276.588 111.111 276.507 110.948 276.425C110.702 276.344 110.539 276.262 110.457 276.099C110.376 275.936 110.294 275.855 110.294 275.692V262.815C110.294 262.082 110.212 261.43 110.049 260.778C109.885 260.207 109.722 259.637 109.395 259.229C109.15 258.822 108.742 258.496 108.333 258.251C107.925 258.007 107.353 257.925 106.781 257.925C106.046 257.925 105.31 258.17 104.575 258.74C103.84 259.311 103.023 260.126 102.124 261.185V275.61C102.124 275.773 102.042 275.936 101.961 276.018C101.879 276.099 101.716 276.262 101.47 276.344C101.225 276.425 100.899 276.507 100.49 276.507C100.082 276.507 99.5914 276.588 99.0195 276.588C98.4476 276.588 97.9574 276.588 97.5489 276.507C97.1404 276.425 96.8136 276.425 96.6502 276.344C96.4051 276.262 96.2417 276.181 96.16 276.018C96.0783 275.936 95.9966 275.773 95.9966 275.61V254.013C95.9966 253.85 95.9966 253.687 96.0783 253.606C96.16 253.524 96.3234 253.361 96.4868 253.28C96.7319 253.198 96.977 253.117 97.3038 253.117C97.6305 253.117 98.0391 253.035 98.5293 253.035C99.0195 253.035 99.5097 253.035 99.8365 253.117C100.163 253.117 100.408 253.198 100.653 253.28C100.817 253.361 100.98 253.443 101.062 253.606C101.144 253.687 101.144 253.85 101.144 254.013V256.54C102.369 255.236 103.513 254.258 104.738 253.606C105.964 252.954 107.189 252.628 108.497 252.628C109.395 252.628 110.212 252.709 110.948 252.872C111.683 253.035 112.336 253.361 112.827 253.687C113.399 254.013 113.889 254.421 114.297 254.91C114.706 255.399 115.033 255.969 115.359 256.54C116.013 255.806 116.667 255.236 117.238 254.747C117.892 254.258 118.464 253.85 119.117 253.524C119.689 253.198 120.343 252.954 120.915 252.791C121.487 252.628 122.14 252.546 122.794 252.546C124.265 252.546 125.49 252.791 126.47 253.28C127.451 253.769 128.268 254.421 128.84 255.236C129.412 256.051 129.902 257.029 130.147 258.17C130.392 259.311 130.555 260.452 130.555 261.756V275.773H130.719Z" fill="white"/>
<path d="M155.229 275.855C155.229 276.099 155.147 276.262 154.984 276.425C154.82 276.588 154.575 276.67 154.248 276.67C153.922 276.751 153.35 276.751 152.696 276.751C151.961 276.751 151.471 276.751 151.062 276.67C150.735 276.588 150.49 276.507 150.327 276.425C150.163 276.262 150.082 276.099 150.082 275.855V274.143C149.183 275.121 148.203 275.855 147.059 276.344C145.915 276.914 144.608 277.159 143.219 277.159C142.075 277.159 141.013 276.996 140.033 276.67C139.052 276.344 138.235 275.936 137.5 275.366C136.765 274.795 136.274 274.062 135.866 273.165C135.457 272.269 135.294 271.291 135.294 270.068C135.294 268.764 135.539 267.705 136.029 266.808C136.52 265.912 137.255 265.097 138.235 264.526C139.216 263.956 140.441 263.467 141.912 263.141C143.382 262.815 145.098 262.734 146.977 262.734H149.101V261.348C149.101 260.696 149.02 260.044 148.856 259.555C148.693 259.066 148.529 258.577 148.203 258.251C147.876 257.925 147.467 257.681 146.895 257.518C146.405 257.355 145.752 257.273 144.935 257.273C143.872 257.273 142.974 257.355 142.157 257.599C141.34 257.844 140.605 258.088 140.033 258.333C139.379 258.577 138.889 258.822 138.48 259.066C138.072 259.311 137.745 259.392 137.5 259.392C137.337 259.392 137.173 259.311 137.01 259.229C136.846 259.148 136.765 258.985 136.683 258.74C136.601 258.496 136.52 258.251 136.438 257.925C136.356 257.599 136.356 257.273 136.356 256.866C136.356 256.377 136.356 255.969 136.438 255.643C136.52 255.317 136.683 255.073 136.928 254.828C137.173 254.584 137.582 254.339 138.154 254.013C138.725 253.769 139.379 253.443 140.114 253.198C140.85 252.954 141.748 252.791 142.647 252.628C143.546 252.465 144.444 252.383 145.425 252.383C147.14 252.383 148.611 252.546 149.837 252.872C151.062 253.198 152.042 253.687 152.859 254.421C153.676 255.073 154.248 255.969 154.575 257.11C154.902 258.251 155.147 259.474 155.147 261.022V275.855H155.229ZM149.265 266.564H146.895C145.915 266.564 145.016 266.645 144.363 266.808C143.627 266.971 143.056 267.134 142.647 267.46C142.239 267.786 141.912 268.112 141.667 268.52C141.503 268.927 141.34 269.416 141.34 269.905C141.34 270.802 141.667 271.535 142.239 272.024C142.81 272.513 143.627 272.839 144.608 272.839C145.506 272.839 146.242 272.595 146.977 272.187C147.712 271.78 148.448 271.128 149.183 270.231V266.564H149.265Z" fill="white"/>
<path d="M175.408 256.051C175.408 256.621 175.408 257.11 175.327 257.518C175.327 257.925 175.245 258.17 175.163 258.414C175.082 258.659 175 258.74 174.918 258.822C174.836 258.903 174.673 258.903 174.51 258.903C174.346 258.903 174.265 258.903 174.101 258.822C173.938 258.74 173.774 258.74 173.529 258.659C173.366 258.577 173.121 258.496 172.876 258.496C172.631 258.414 172.385 258.414 172.059 258.414C171.732 258.414 171.405 258.496 170.997 258.659C170.67 258.822 170.261 258.985 169.935 259.311C169.608 259.637 169.199 259.962 168.791 260.451C168.382 260.94 167.974 261.511 167.484 262.244V275.773C167.484 275.936 167.402 276.099 167.32 276.181C167.238 276.262 167.075 276.425 166.83 276.507C166.585 276.588 166.258 276.67 165.85 276.67C165.441 276.67 164.951 276.751 164.379 276.751C163.807 276.751 163.317 276.751 162.908 276.67C162.5 276.588 162.173 276.588 162.01 276.507C161.765 276.425 161.601 276.344 161.519 276.181C161.438 276.099 161.356 275.936 161.356 275.773V254.013C161.356 253.85 161.356 253.687 161.438 253.606C161.519 253.524 161.683 253.361 161.846 253.28C162.091 253.198 162.336 253.117 162.663 253.117C162.99 253.117 163.399 253.035 163.889 253.035C164.379 253.035 164.869 253.035 165.196 253.117C165.523 253.117 165.768 253.198 166.013 253.28C166.176 253.361 166.34 253.443 166.421 253.606C166.503 253.687 166.503 253.85 166.503 254.013V256.703C167.075 255.888 167.647 255.236 168.137 254.665C168.627 254.095 169.118 253.687 169.608 253.443C170.098 253.117 170.506 252.954 170.997 252.791C171.487 252.709 171.895 252.628 172.385 252.628C172.631 252.628 172.794 252.628 173.039 252.628C173.284 252.628 173.529 252.709 173.774 252.709C174.019 252.791 174.265 252.791 174.428 252.872C174.591 252.954 174.755 253.035 174.836 253.117C174.918 253.198 175 253.28 175 253.361C175 253.443 175.082 253.606 175.082 253.769C175.082 253.932 175.163 254.176 175.163 254.502C175.327 254.991 175.408 255.48 175.408 256.051Z" fill="white"/>
<path d="M192.075 273.573C192.075 274.306 191.993 274.795 191.912 275.203C191.83 275.61 191.667 275.855 191.585 276.018C191.421 276.181 191.258 276.344 190.931 276.425C190.686 276.507 190.278 276.67 189.951 276.751C189.542 276.833 189.134 276.914 188.725 276.996C188.317 277.077 187.827 277.077 187.337 277.077C186.111 277.077 185.049 276.914 184.15 276.588C183.252 276.262 182.516 275.773 181.944 275.203C181.372 274.551 180.964 273.736 180.637 272.758C180.392 271.78 180.229 270.639 180.229 269.335V258.17H177.614C177.287 258.17 177.042 258.007 176.879 257.599C176.716 257.192 176.634 256.621 176.634 255.725C176.634 255.236 176.634 254.828 176.716 254.502C176.716 254.176 176.797 253.932 176.879 253.769C176.961 253.606 177.042 253.443 177.206 253.361C177.287 253.28 177.451 253.28 177.614 253.28H180.229V248.471C180.229 248.308 180.31 248.145 180.392 248.064C180.474 247.901 180.637 247.819 180.882 247.738C181.127 247.656 181.454 247.575 181.863 247.575C182.271 247.575 182.761 247.493 183.333 247.493C183.905 247.493 184.395 247.493 184.804 247.575C185.212 247.656 185.539 247.656 185.703 247.738C185.948 247.819 186.111 247.901 186.193 248.064C186.274 248.227 186.356 248.308 186.356 248.471V253.28H191.095C191.258 253.28 191.421 253.28 191.503 253.361C191.585 253.443 191.748 253.606 191.83 253.769C191.912 253.932 191.993 254.176 191.993 254.502C191.993 254.828 192.075 255.236 192.075 255.725C192.075 256.621 191.993 257.273 191.83 257.599C191.667 258.007 191.421 258.17 191.095 258.17H186.356V268.357C186.356 269.579 186.52 270.394 186.928 271.046C187.337 271.617 187.99 271.943 188.889 271.943C189.216 271.943 189.542 271.943 189.787 271.861C190.033 271.78 190.278 271.78 190.523 271.698C190.768 271.617 190.931 271.535 191.013 271.535C191.176 271.454 191.258 271.454 191.421 271.454C191.503 271.454 191.585 271.454 191.667 271.535C191.748 271.617 191.83 271.698 191.912 271.861C191.993 272.024 191.993 272.269 192.075 272.595C191.993 272.758 192.075 273.165 192.075 273.573Z" fill="white"/>
<path d="M229.984 271.78C229.984 272.187 229.984 272.513 229.984 272.839C229.984 273.165 229.902 273.328 229.902 273.573C229.82 273.736 229.82 273.98 229.738 274.062C229.657 274.225 229.493 274.388 229.33 274.551C229.167 274.714 228.84 274.958 228.268 275.284C227.778 275.61 227.124 275.855 226.389 276.099C225.653 276.344 224.836 276.588 223.856 276.751C222.876 276.914 221.895 276.996 220.752 276.996C218.627 276.996 216.667 276.67 214.869 276.018C213.153 275.366 211.683 274.388 210.457 273.002C209.232 271.698 208.333 270.068 207.68 268.031C207.026 266.075 206.699 263.712 206.699 261.104C206.699 258.414 207.026 256.051 207.761 253.932C208.497 251.894 209.477 250.101 210.784 248.716C212.091 247.33 213.644 246.271 215.441 245.538C217.238 244.804 219.199 244.478 221.405 244.478C222.304 244.478 223.121 244.56 223.938 244.723C224.755 244.886 225.49 245.049 226.225 245.293C226.879 245.537 227.533 245.782 228.104 246.108C228.676 246.434 229.003 246.678 229.248 246.923C229.493 247.167 229.657 247.33 229.738 247.493C229.82 247.656 229.902 247.819 229.902 248.064C229.984 248.308 229.984 248.553 229.984 248.879C229.984 249.205 229.984 249.531 229.984 250.02C229.984 250.509 229.984 250.916 229.902 251.242C229.902 251.568 229.82 251.894 229.738 252.057C229.657 252.22 229.575 252.383 229.412 252.546C229.33 252.628 229.167 252.709 229.003 252.709C228.758 252.709 228.431 252.546 228.104 252.302C227.696 252.057 227.206 251.731 226.634 251.324C226.062 250.998 225.327 250.672 224.51 250.346C223.693 250.101 222.712 249.938 221.569 249.938C220.343 249.938 219.199 250.183 218.219 250.672C217.238 251.161 216.421 251.894 215.686 252.872C215.033 253.85 214.461 254.991 214.134 256.295C213.807 257.599 213.562 259.148 213.562 260.859C213.562 262.734 213.725 264.282 214.134 265.667C214.542 267.053 215.033 268.112 215.768 269.009C216.503 269.905 217.32 270.557 218.301 270.965C219.281 271.372 220.425 271.617 221.65 271.617C222.794 271.617 223.774 271.454 224.591 271.209C225.408 270.965 226.144 270.639 226.716 270.313C227.287 269.987 227.778 269.661 228.186 269.416C228.595 269.172 228.84 269.009 229.085 269.009C229.248 269.009 229.412 269.009 229.493 269.09C229.575 269.172 229.657 269.253 229.738 269.498C229.82 269.742 229.82 269.987 229.902 270.313C229.984 270.639 229.984 271.209 229.984 271.78Z" fill="white"/>
<path d="M240.359 275.773C240.359 275.936 240.278 276.099 240.196 276.181C240.114 276.262 239.951 276.425 239.706 276.507C239.461 276.588 239.134 276.67 238.725 276.67C238.317 276.67 237.827 276.751 237.255 276.751C236.683 276.751 236.193 276.751 235.784 276.67C235.376 276.588 235.049 276.588 234.886 276.507C234.64 276.425 234.477 276.344 234.395 276.181C234.314 276.099 234.232 275.936 234.232 275.773V243.745C234.232 243.582 234.314 243.419 234.395 243.337C234.477 243.174 234.64 243.093 234.886 243.011C235.131 242.93 235.457 242.848 235.784 242.767C236.193 242.685 236.683 242.685 237.255 242.685C237.827 242.685 238.317 242.685 238.725 242.767C239.134 242.848 239.461 242.848 239.706 243.011C239.951 243.093 240.114 243.174 240.196 243.337C240.278 243.5 240.359 243.582 240.359 243.745V275.773Z" fill="white"/>
<path d="M268.546 264.689C268.546 266.564 268.301 268.194 267.81 269.742C267.32 271.291 266.585 272.595 265.605 273.654C264.624 274.714 263.399 275.61 261.846 276.181C260.376 276.751 258.578 277.077 256.618 277.077C254.657 277.077 253.023 276.833 251.552 276.262C250.082 275.692 248.938 274.958 247.957 273.899C246.977 272.839 246.323 271.617 245.833 270.15C245.343 268.683 245.18 266.971 245.18 265.015C245.18 263.141 245.425 261.511 245.915 259.962C246.405 258.414 247.14 257.11 248.121 256.051C249.101 254.991 250.327 254.095 251.879 253.524C253.35 252.954 255.147 252.628 257.108 252.628C259.069 252.628 260.784 252.872 262.173 253.443C263.644 253.932 264.788 254.747 265.686 255.806C266.585 256.866 267.32 258.088 267.81 259.555C268.301 261.022 268.546 262.733 268.546 264.689ZM262.173 264.934C262.173 263.874 262.091 262.896 261.928 262C261.765 261.103 261.438 260.288 261.029 259.637C260.621 258.985 260.049 258.414 259.395 258.088C258.742 257.762 257.843 257.518 256.863 257.518C255.964 257.518 255.147 257.681 254.493 258.007C253.84 258.333 253.268 258.822 252.778 259.474C252.369 260.126 252.042 260.859 251.797 261.755C251.552 262.652 251.471 263.711 251.471 264.852C251.471 265.912 251.552 266.89 251.716 267.786C251.879 268.683 252.206 269.498 252.614 270.15C253.023 270.802 253.595 271.291 254.248 271.698C254.902 272.024 255.801 272.269 256.781 272.269C257.68 272.269 258.497 272.106 259.232 271.78C259.967 271.454 260.457 270.965 260.948 270.313C261.356 269.661 261.683 268.927 261.928 268.031C262.091 267.134 262.173 266.075 262.173 264.934Z" fill="white"/>
<path d="M294.036 275.773C294.036 275.936 294.036 276.099 293.954 276.181C293.872 276.262 293.709 276.425 293.546 276.507C293.382 276.588 293.055 276.67 292.729 276.67C292.402 276.67 291.993 276.751 291.503 276.751C290.931 276.751 290.523 276.751 290.196 276.67C289.869 276.67 289.624 276.588 289.379 276.507C289.216 276.425 289.052 276.344 288.971 276.181C288.889 276.099 288.889 275.936 288.889 275.773V273.247C287.663 274.551 286.438 275.529 285.212 276.181C283.987 276.833 282.68 277.159 281.372 277.159C279.902 277.159 278.595 276.914 277.614 276.425C276.634 275.936 275.735 275.284 275.163 274.469C274.591 273.654 274.101 272.676 273.856 271.535C273.611 270.394 273.448 269.009 273.448 267.379V254.013C273.448 253.85 273.529 253.687 273.611 253.606C273.693 253.524 273.856 253.361 274.101 253.28C274.346 253.198 274.673 253.117 275.082 253.117C275.49 253.117 275.98 253.035 276.552 253.035C277.124 253.035 277.614 253.035 278.023 253.117C278.431 253.117 278.758 253.198 278.921 253.28C279.167 253.361 279.33 253.443 279.412 253.606C279.493 253.687 279.575 253.85 279.575 254.013V266.319C279.575 267.46 279.657 268.357 279.82 268.927C279.984 269.498 280.229 270.068 280.474 270.476C280.801 270.883 281.127 271.209 281.618 271.454C282.108 271.698 282.598 271.78 283.252 271.78C284.069 271.78 284.804 271.535 285.621 270.965C286.438 270.394 287.255 269.579 288.154 268.52V254.013C288.154 253.85 288.235 253.687 288.317 253.606C288.399 253.524 288.562 253.361 288.807 253.28C289.052 253.198 289.379 253.117 289.788 253.117C290.196 253.117 290.686 253.035 291.258 253.035C291.83 253.035 292.32 253.035 292.729 253.117C293.137 253.117 293.464 253.198 293.627 253.28C293.872 253.361 294.036 253.443 294.118 253.606C294.199 253.687 294.281 253.85 294.281 254.013V275.773H294.036Z" fill="white"/>
<path d="M320.833 275.773C320.833 275.936 320.833 276.099 320.752 276.262C320.67 276.425 320.507 276.507 320.343 276.588C320.18 276.67 319.853 276.751 319.526 276.751C319.199 276.751 318.791 276.833 318.301 276.833C317.81 276.833 317.32 276.833 316.993 276.751C316.667 276.751 316.422 276.67 316.176 276.588C316.013 276.507 315.85 276.425 315.768 276.262C315.686 276.099 315.605 276.018 315.605 275.773V273.328C314.461 274.551 313.317 275.447 312.091 276.099C310.866 276.751 309.477 277.077 308.006 277.077C306.373 277.077 304.984 276.751 303.758 276.099C302.614 275.447 301.716 274.632 300.98 273.491C300.245 272.432 299.755 271.128 299.428 269.661C299.101 268.194 298.938 266.645 298.938 265.097C298.938 263.141 299.183 261.43 299.591 259.881C300 258.333 300.572 257.029 301.389 255.969C302.206 254.91 303.186 254.013 304.33 253.443C305.556 252.872 306.863 252.546 308.415 252.546C309.64 252.546 310.703 252.791 311.765 253.28C312.745 253.769 313.725 254.502 314.706 255.48V243.745C314.706 243.582 314.788 243.419 314.869 243.337C314.951 243.174 315.114 243.093 315.359 243.011C315.605 242.93 315.931 242.848 316.34 242.767C316.748 242.685 317.239 242.685 317.81 242.685C318.382 242.685 318.873 242.685 319.281 242.767C319.69 242.848 320.016 242.848 320.18 243.011C320.425 243.093 320.588 243.174 320.67 243.337C320.752 243.5 320.833 243.582 320.833 243.745V275.773ZM314.788 261.267C313.889 260.126 313.072 259.311 312.255 258.74C311.438 258.17 310.621 257.844 309.722 257.844C308.905 257.844 308.252 258.007 307.68 258.414C307.108 258.822 306.618 259.311 306.291 260.044C305.964 260.696 305.719 261.43 305.474 262.245C305.229 263.06 305.229 263.874 305.229 264.771C305.229 265.667 305.31 266.564 305.474 267.46C305.637 268.357 305.882 269.09 306.209 269.742C306.536 270.394 307.026 270.965 307.516 271.372C308.088 271.78 308.742 271.943 309.64 271.943C310.049 271.943 310.457 271.861 310.866 271.78C311.274 271.698 311.683 271.454 312.091 271.209C312.5 270.965 312.908 270.557 313.399 270.15C313.807 269.742 314.297 269.172 314.869 268.52V261.267H314.788Z" fill="white"/>
<path d="M359.722 247.738C359.722 248.227 359.722 248.634 359.64 248.96C359.559 249.286 359.559 249.531 359.477 249.775C359.395 249.938 359.314 250.101 359.15 250.264C359.068 250.346 358.905 250.427 358.742 250.427H350.817V275.855C350.817 276.018 350.735 276.181 350.653 276.262C350.572 276.425 350.408 276.507 350.163 276.588C349.918 276.67 349.591 276.751 349.183 276.751C348.774 276.751 348.284 276.833 347.631 276.833C346.977 276.833 346.487 276.833 346.078 276.751C345.67 276.67 345.343 276.67 345.098 276.588C344.853 276.507 344.689 276.425 344.608 276.262C344.526 276.099 344.444 276.018 344.444 275.855V250.427H336.519C336.356 250.427 336.193 250.346 336.111 250.264C336.029 250.183 335.866 250.02 335.784 249.775C335.702 249.612 335.621 249.286 335.621 248.96C335.539 248.634 335.539 248.227 335.539 247.738C335.539 247.249 335.539 246.841 335.621 246.515C335.621 246.189 335.702 245.863 335.784 245.7C335.866 245.537 335.948 245.374 336.111 245.293C336.193 245.211 336.356 245.13 336.519 245.13H358.742C358.905 245.13 358.987 245.211 359.15 245.293C359.314 245.374 359.395 245.537 359.477 245.7C359.559 245.863 359.64 246.189 359.64 246.515C359.64 246.841 359.722 247.249 359.722 247.738Z" fill="white"/>
<path d="M400.245 275.692C400.245 275.855 400.163 276.018 400.082 276.099C400 276.262 399.837 276.344 399.591 276.425C399.346 276.507 399.02 276.588 398.611 276.588C398.203 276.588 397.712 276.67 397.14 276.67C396.569 276.67 396.078 276.67 395.67 276.588C395.261 276.507 394.935 276.507 394.771 276.425C394.526 276.344 394.363 276.262 394.281 276.099C394.199 275.936 394.118 275.855 394.118 275.692V250.02H394.036L384.886 275.61C384.804 275.855 384.722 276.018 384.559 276.099C384.395 276.262 384.232 276.344 383.987 276.425C383.742 276.507 383.415 276.588 383.006 276.588C382.598 276.588 382.108 276.588 381.618 276.588C381.046 276.588 380.555 276.588 380.229 276.507C379.82 276.507 379.493 276.425 379.248 276.344C379.003 276.262 378.758 276.181 378.676 276.018C378.513 275.855 378.431 275.773 378.35 275.529L369.526 249.938H369.444V275.61C369.444 275.773 369.363 275.936 369.281 276.018C369.199 276.181 369.036 276.262 368.791 276.344C368.546 276.425 368.219 276.507 367.892 276.507C367.484 276.588 366.993 276.588 366.421 276.588C365.85 276.588 365.359 276.588 364.951 276.507C364.542 276.425 364.216 276.425 363.97 276.344C363.725 276.262 363.562 276.181 363.48 276.018C363.399 275.855 363.317 275.773 363.317 275.61V247.575C363.317 246.76 363.562 246.108 363.97 245.701C364.379 245.293 365.033 245.049 365.768 245.049H369.935C370.67 245.049 371.323 245.13 371.895 245.212C372.467 245.293 372.876 245.538 373.284 245.782C373.693 246.027 374.02 246.434 374.265 246.923C374.51 247.412 374.755 247.982 374.918 248.634L381.781 267.379H381.863L388.97 248.634C389.216 247.982 389.379 247.412 389.706 246.923C389.951 246.434 390.278 246.108 390.604 245.782C390.931 245.456 391.34 245.293 391.748 245.13C392.157 244.967 392.729 244.967 393.301 244.967H397.631C398.039 244.967 398.448 245.049 398.774 245.13C399.101 245.212 399.346 245.375 399.591 245.619C399.755 245.864 399.918 246.108 400.082 246.434C400.163 246.76 400.245 247.086 400.245 247.493V275.692Z" fill="white"/>
<path d="M425.817 267.134C425.817 268.764 425.49 270.231 424.918 271.454C424.265 272.676 423.448 273.736 422.386 274.551C421.323 275.366 420.098 276.018 418.709 276.425C417.32 276.833 415.768 277.077 414.134 277.077C413.072 277.077 412.01 276.996 411.111 276.833C410.212 276.67 409.314 276.425 408.66 276.181C407.925 275.936 407.353 275.692 406.863 275.366C406.372 275.121 406.046 274.877 405.801 274.632C405.555 274.388 405.474 274.143 405.31 273.736C405.147 273.328 405.147 272.758 405.147 272.024C405.147 271.535 405.147 271.128 405.229 270.72C405.229 270.394 405.31 270.068 405.392 269.905C405.474 269.661 405.555 269.579 405.719 269.416C405.882 269.253 405.964 269.253 406.127 269.253C406.372 269.253 406.699 269.416 407.108 269.661C407.516 269.905 408.088 270.231 408.742 270.557C409.395 270.883 410.131 271.209 411.111 271.454C412.01 271.698 413.072 271.861 414.216 271.861C415.033 271.861 415.686 271.78 416.34 271.617C416.993 271.454 417.484 271.128 417.892 270.802C418.301 270.476 418.627 270.068 418.872 269.498C419.118 269.009 419.199 268.438 419.199 267.786C419.199 267.053 419.036 266.483 418.627 265.912C418.219 265.423 417.729 264.934 417.075 264.527C416.421 264.119 415.768 263.793 414.951 263.386C414.134 263.06 413.317 262.652 412.5 262.245C411.683 261.837 410.866 261.43 410.049 260.941C409.232 260.452 408.578 259.881 407.925 259.148C407.271 258.496 406.781 257.681 406.372 256.703C405.964 255.725 405.801 254.665 405.801 253.28C405.801 251.731 406.046 250.427 406.618 249.286C407.189 248.146 407.925 247.168 408.905 246.434C409.886 245.701 410.948 245.13 412.255 244.723C413.562 244.315 414.951 244.152 416.34 244.152C417.075 244.152 417.81 244.234 418.546 244.315C419.281 244.397 420.016 244.56 420.67 244.804C421.323 245.049 421.895 245.212 422.386 245.456C422.876 245.701 423.203 245.864 423.366 246.027C423.529 246.19 423.611 246.353 423.693 246.434C423.774 246.516 423.774 246.679 423.856 246.923C423.856 247.086 423.938 247.331 423.938 247.657C423.938 247.901 423.938 248.308 423.938 248.716C423.938 249.205 423.938 249.612 423.938 249.938C423.938 250.264 423.856 250.509 423.856 250.753C423.774 250.998 423.693 251.079 423.611 251.242C423.529 251.324 423.366 251.405 423.203 251.405C423.039 251.405 422.712 251.324 422.386 251.079C421.977 250.835 421.487 250.59 420.915 250.346C420.343 250.101 419.689 249.857 418.954 249.612C418.219 249.368 417.402 249.286 416.503 249.286C415.768 249.286 415.196 249.368 414.706 249.531C414.216 249.694 413.725 249.938 413.399 250.264C413.072 250.59 412.827 250.916 412.582 251.324C412.418 251.731 412.337 252.22 412.337 252.628C412.337 253.361 412.5 253.932 412.908 254.421C413.317 254.91 413.807 255.399 414.461 255.806C415.114 256.214 415.85 256.54 416.667 256.947C417.484 257.273 418.301 257.681 419.118 258.088C419.935 258.496 420.833 258.903 421.569 259.392C422.386 259.881 423.121 260.452 423.774 261.185C424.428 261.837 424.918 262.652 425.327 263.63C425.654 264.771 425.817 265.831 425.817 267.134Z" fill="white"/>
</g>
<defs>
<clipPath id="clip0_1195_5366">
<rect width="500" height="370" fill="white"/>
</clipPath>
</defs>
</svg>
