<svg width="500" height="370" viewBox="0 0 500 370" fill="none" xmlns="http://www.w3.org/2000/svg">
<path d="M232.013 177.584V157.209C230.624 158.024 226.294 160.388 221.065 160.388C215.673 160.388 210.199 157.861 208.647 157.128V177.584C208.647 180.11 207.748 182.066 206.033 183.37C205.379 183.859 204.726 184.267 204.072 184.593C202.683 185.163 201.213 185.408 199.579 185.489C198.108 185.489 196.801 185.245 195.494 184.756C194.677 184.43 193.86 183.941 193.206 183.37C191.409 181.985 190.592 180.029 190.592 177.584V151.83C190.592 147.919 189.856 144.251 188.549 140.747C187.16 137.242 185.199 134.145 182.83 131.537C180.379 128.93 177.438 126.811 174.088 125.262C170.739 123.714 166.98 122.98 162.896 122.98C159.056 122.98 155.216 123.795 151.539 125.262C147.863 126.811 144.84 129.174 142.471 132.352L141.899 133.086V124.855H118.451V171.553C118.451 171.879 118.288 172.531 118.043 173.59C117.716 174.813 117.552 175.383 117.389 175.628C116.245 178.725 114.611 181.333 112.487 183.37C110.281 185.408 107.422 186.467 103.827 186.467C100.232 186.467 97.5361 185.245 95.7387 182.881C93.9413 180.436 93.0426 177.584 93.0426 174.405V124.773H69.5132V177.176C69.5132 181.088 70.2485 184.837 71.5557 188.341C72.9446 191.846 74.9053 195.024 77.2746 197.632C79.6439 200.24 82.6668 202.359 86.0165 203.989C89.4478 205.538 93.206 206.352 97.2093 206.352C102.03 206.352 106.686 205.13 110.853 202.848C113.549 201.381 115.837 199.344 117.634 196.899L118.206 196.165V204.152H141.654V157.454C141.654 157.291 141.735 156.802 142.062 155.253C142.307 154.112 142.552 153.379 142.716 153.053C143.86 149.956 145.494 147.348 147.618 145.229C149.742 143.11 152.683 142.051 156.278 142.051C159.873 142.051 162.569 143.273 164.284 145.637C166 148 166.899 150.852 166.899 154.112V177.013C166.735 177.665 166.654 178.562 166.654 179.621C166.654 197.714 176.703 205.782 199.333 205.782C221.311 205.782 232.013 197.225 232.013 179.621C232.013 179.132 232.013 178.725 232.013 178.317C232.095 178.236 232.013 177.91 232.013 177.584Z" fill="white"/>
<path d="M183.484 103.584L188.386 110.592C196.719 102.198 207.83 97.5528 219.595 97.5528C231.523 97.5528 242.634 102.198 250.967 110.592L255.869 103.584C246.229 93.8039 233.32 88.425 219.595 88.425C205.951 88.425 193.124 93.8039 183.484 103.584Z" fill="white"/>
<path d="M194.023 116.868L198.843 123.306C203.99 118.253 212.65 114.586 219.513 114.586C226.539 114.586 235.281 118.253 240.428 123.306L245.248 116.868C238.876 110.511 228.337 106.029 219.513 106.029C210.853 106.11 200.395 110.511 194.023 116.868Z" fill="white"/>
<path d="M229.807 127.3C227.029 124.447 223.598 122.98 219.595 122.98C215.755 122.98 212.324 124.447 209.546 127.3C206.768 130.152 205.379 133.493 205.379 137.405C205.379 141.317 206.768 144.659 209.546 147.511C212.324 150.363 215.673 151.83 219.595 151.83C223.598 151.83 227.029 150.363 229.807 147.511C232.585 144.659 233.974 141.236 233.974 137.405C233.974 133.575 232.585 130.152 229.807 127.3Z" fill="white"/>
<path d="M229.807 127.3C227.029 124.447 223.598 122.98 219.595 122.98C215.755 122.98 212.324 124.447 209.546 127.3C206.768 130.152 205.379 133.493 205.379 137.405C205.379 141.317 206.768 144.659 209.546 147.511C212.324 150.363 215.673 151.83 219.595 151.83C223.598 151.83 227.029 150.363 229.807 147.511C232.585 144.659 233.974 141.236 233.974 137.405C233.974 133.575 232.585 130.152 229.807 127.3Z" fill="white"/>
<path d="M352.193 122.817H330.297V205.945H352.193V122.817Z" fill="white"/>
<path d="M421.065 163.566C418.451 161.691 415.183 159.98 411.425 158.676C407.667 157.291 403.337 156.15 398.68 155.09C395.82 154.438 393.451 153.868 391.572 153.297C389.693 152.727 388.222 152.075 387.079 151.504C385.935 150.852 385.118 150.119 384.628 149.385C384.137 148.57 383.892 147.674 383.892 146.614V146.37C383.892 144.658 384.709 143.273 386.18 142.132C387.65 141.073 389.856 140.502 392.716 140.502C396.474 140.502 400.396 141.236 404.48 142.621C408.32 143.925 412.16 145.881 415.755 148.407L426.539 133.167C422.209 129.744 417.389 127.136 412.079 125.425C406.605 123.632 400.314 122.654 393.288 122.654C388.386 122.654 383.974 123.306 380.134 124.529C376.294 125.751 372.945 127.625 370.248 129.907C367.552 132.189 365.428 134.879 364.039 138.057C362.65 141.154 361.915 144.658 361.915 148.407V148.652C361.915 152.727 362.732 156.231 364.284 159.002C365.837 161.773 368.043 164.136 370.739 165.929C373.516 167.804 376.784 169.352 380.461 170.575C384.219 171.797 388.304 172.938 392.716 173.916C395.575 174.568 397.945 175.139 399.66 175.791C401.458 176.361 402.928 177.013 404.072 177.665C405.216 178.317 406.033 179.051 406.441 179.784C406.85 180.517 407.095 181.414 407.095 182.392V182.636C407.095 184.674 406.196 186.222 404.399 187.282C402.683 188.341 400.232 188.83 397.046 188.83C387.487 188.83 378.5 185.57 370.248 179.214L358.239 193.557C363.222 197.877 368.941 201.136 375.314 203.337C381.85 205.619 388.958 206.76 396.229 206.76C401.213 206.76 405.788 206.189 409.791 204.967C413.794 203.744 417.307 202.033 420.085 199.832C422.945 197.632 425.15 194.861 426.703 191.683C428.255 188.504 429.072 184.755 429.072 180.68V180.11C429.072 176.361 428.337 173.183 427.03 170.493C425.722 167.804 423.68 165.44 421.065 163.566Z" fill="white"/>
<path d="M285.935 207.167C279.562 207.167 273.598 206.108 268.124 204.07C262.732 202.033 257.994 199.099 253.99 195.432C249.987 191.683 246.883 187.2 244.595 182.066C242.307 176.932 241.164 171.145 241.164 165.033V164.788C241.164 158.921 242.307 153.297 244.513 148.163C246.719 143.029 249.824 138.465 253.664 134.634C257.503 130.804 262.242 127.788 267.634 125.588C273.026 123.388 278.99 122.328 285.281 122.328C292.552 122.328 298.843 123.388 304.154 125.507C309.301 127.544 314.121 130.478 318.451 134.064L305.379 149.711L304.971 150.119C302.601 147.918 300.967 146.859 298.925 145.799C295.167 143.762 291.082 142.784 286.017 142.784C273.762 142.784 263.876 152.645 263.876 164.788C263.876 176.932 273.843 186.793 286.017 186.793C289.039 186.793 292.307 186.141 295.167 184.918L295.33 184.837C296.392 184.429 299.252 183.207 299.252 179.54C299.252 177.095 297.618 174.976 295.167 174.161H284.056V158.106H321.474V178.48C321.474 178.562 321.964 188.504 315.592 195.269L315.428 195.432C311.834 199.262 308.157 202.033 304.317 203.581C298.108 206.271 290.673 207.167 285.935 207.167Z" fill="white"/>
<path d="M90.6732 264.134C90.6732 265.764 90.3464 267.231 89.7745 268.454C89.1209 269.676 88.304 270.736 87.2419 271.551C86.1798 272.366 84.9543 273.018 83.5654 273.425C82.1765 273.833 80.6242 274.077 78.9902 274.077C77.9281 274.077 76.866 273.996 75.9674 273.833C75.0687 273.67 74.17 273.425 73.5164 273.181C72.7811 272.936 72.2092 272.692 71.719 272.366C71.2288 272.121 70.902 271.877 70.6569 271.632C70.4118 271.388 70.3301 271.143 70.1667 270.736C70.085 270.328 70.0033 269.758 70.0033 269.024C70.0033 268.535 70.0033 268.128 70.085 267.72C70.085 267.394 70.1667 267.068 70.2484 266.905C70.3301 266.661 70.4118 266.579 70.5752 266.416C70.7386 266.253 70.8203 266.253 70.9837 266.253C71.2288 266.253 71.5556 266.416 71.9641 266.661C72.3726 266.905 72.9445 267.231 73.5981 267.557C74.2517 267.883 74.987 268.209 75.9674 268.454C76.866 268.698 77.9281 268.861 79.0719 268.861C79.8889 268.861 80.5425 268.78 81.1961 268.617C81.8497 268.454 82.3399 268.128 82.7484 267.802C83.1569 267.476 83.4837 267.068 83.7288 266.498C83.9739 266.009 84.0556 265.438 84.0556 264.786C84.0556 264.053 83.8922 263.483 83.4837 262.912C83.0752 262.423 82.585 261.934 81.9314 261.527C81.2778 261.119 80.6242 260.793 79.8072 260.386C78.9902 260.06 78.1732 259.652 77.3562 259.245C76.5392 258.837 75.7222 258.43 74.9053 257.941C74.0883 257.452 73.4347 256.881 72.7811 256.148C72.1275 255.496 71.6373 254.681 71.2288 253.703C70.8203 252.725 70.6569 251.665 70.6569 250.28C70.6569 248.731 70.902 247.427 71.4739 246.286C72.0458 245.146 72.7811 244.168 73.7615 243.434C74.7419 242.701 75.804 242.13 77.1111 241.723C78.4183 241.315 79.8072 241.152 81.1961 241.152C81.9314 241.152 82.6667 241.234 83.402 241.315C84.1373 241.397 84.8726 241.56 85.5262 241.804C86.1798 241.967 86.7517 242.212 87.2419 242.456C87.7321 242.701 88.0589 242.864 88.2223 243.027C88.3857 243.19 88.4674 243.353 88.5491 243.434C88.6308 243.516 88.6307 243.679 88.7124 243.923C88.7124 244.086 88.7941 244.331 88.7941 244.657C88.7941 244.901 88.7941 245.308 88.7941 245.716C88.7941 246.205 88.7941 246.612 88.7941 246.938C88.7941 247.264 88.7124 247.509 88.7124 247.753C88.6307 247.998 88.5491 248.079 88.4674 248.242C88.3857 248.324 88.2223 248.405 88.0589 248.405C87.8955 248.405 87.5687 248.324 87.2419 248.079C86.8334 247.835 86.3432 247.59 85.7713 247.346C85.1994 247.101 84.5458 246.857 83.8105 246.612C83.0752 246.368 82.2582 246.286 81.3595 246.286C80.6242 246.286 80.0523 246.368 79.5621 246.531C79.0719 246.694 78.5817 246.938 78.2549 247.264C77.9281 247.59 77.683 247.916 77.4379 248.324C77.1928 248.731 77.1928 249.22 77.1928 249.628C77.1928 250.361 77.3562 250.932 77.7647 251.421C78.1732 251.91 78.6634 252.399 79.317 252.806C79.9706 253.214 80.7059 253.54 81.5229 253.947C82.3399 254.273 83.1569 254.681 83.9739 255.088C84.7909 255.496 85.6896 255.903 86.4249 256.392C87.2419 256.881 87.9772 257.452 88.6307 258.185C89.2843 258.837 89.7745 259.652 90.183 260.63C90.5915 261.608 90.6732 262.831 90.6732 264.134Z" fill="white"/>
<path d="M129.889 272.773C129.889 272.936 129.807 273.099 129.726 273.181C129.644 273.262 129.48 273.425 129.235 273.507C128.99 273.588 128.663 273.67 128.337 273.67C127.928 273.67 127.438 273.751 126.866 273.751C126.212 273.751 125.722 273.751 125.314 273.67C124.905 273.588 124.579 273.588 124.333 273.507C124.088 273.425 123.925 273.344 123.843 273.181C123.762 273.099 123.68 272.936 123.68 272.773V259.897C123.68 259.163 123.598 258.511 123.435 257.859C123.271 257.289 123.108 256.718 122.781 256.311C122.536 255.903 122.128 255.577 121.719 255.333C121.311 255.088 120.739 255.007 120.167 255.007C119.431 255.007 118.696 255.251 117.961 255.822C117.226 256.392 116.409 257.207 115.51 258.267V272.692C115.51 272.855 115.428 273.018 115.346 273.099C115.265 273.181 115.101 273.344 114.856 273.425C114.611 273.507 114.284 273.588 113.958 273.588C113.631 273.588 113.059 273.67 112.487 273.67C111.915 273.67 111.425 273.67 111.016 273.588C110.608 273.588 110.281 273.507 110.118 273.425C109.873 273.344 109.709 273.262 109.628 273.099C109.546 272.936 109.464 272.855 109.464 272.692V259.815C109.464 259.082 109.382 258.43 109.219 257.778C109.056 257.207 108.892 256.637 108.565 256.229C108.32 255.822 107.912 255.496 107.503 255.251C107.095 255.007 106.523 254.925 105.951 254.925C105.216 254.925 104.48 255.17 103.745 255.74C103.01 256.311 102.193 257.126 101.294 258.185V272.61C101.294 272.773 101.213 272.936 101.131 273.018C101.049 273.099 100.886 273.262 100.641 273.344C100.396 273.425 100.069 273.507 99.6602 273.507C99.2517 273.507 98.7615 273.588 98.1896 273.588C97.6177 273.588 97.1275 273.588 96.719 273.507C96.3105 273.425 95.9837 273.425 95.8203 273.344C95.5752 273.262 95.4118 273.181 95.3301 273.018C95.2484 272.936 95.1667 272.773 95.1667 272.61V251.013C95.1667 250.85 95.1667 250.687 95.2484 250.606C95.3301 250.524 95.4935 250.361 95.6569 250.28C95.902 250.198 96.1471 250.117 96.4739 250.117C96.8007 250.117 97.2092 250.035 97.6994 250.035C98.1896 250.035 98.6798 250.035 99.0066 250.117C99.3334 250.117 99.5785 250.198 99.8236 250.28C99.987 250.361 100.15 250.443 100.232 250.606C100.314 250.687 100.314 250.85 100.314 251.013V253.54C101.539 252.236 102.683 251.258 103.909 250.606C105.134 249.954 106.36 249.628 107.667 249.628C108.565 249.628 109.382 249.709 110.118 249.872C110.853 250.035 111.507 250.361 111.997 250.687C112.569 251.013 113.059 251.421 113.467 251.91C113.876 252.399 114.203 252.969 114.529 253.54C115.183 252.806 115.837 252.236 116.409 251.747C117.062 251.258 117.634 250.85 118.288 250.524C118.86 250.198 119.513 249.954 120.085 249.791C120.657 249.628 121.311 249.546 121.964 249.546C123.435 249.546 124.66 249.791 125.641 250.28C126.621 250.769 127.438 251.421 128.01 252.236C128.582 253.051 129.072 254.029 129.317 255.17C129.562 256.311 129.726 257.452 129.726 258.756V272.773H129.889Z" fill="white"/>
<path d="M154.399 272.855C154.399 273.099 154.317 273.262 154.154 273.425C153.99 273.588 153.745 273.67 153.418 273.67C153.092 273.751 152.52 273.751 151.866 273.751C151.131 273.751 150.641 273.751 150.232 273.67C149.905 273.588 149.66 273.507 149.497 273.425C149.333 273.262 149.252 273.099 149.252 272.855V271.143C148.353 272.121 147.373 272.855 146.229 273.344C145.085 273.914 143.778 274.159 142.389 274.159C141.245 274.159 140.183 273.996 139.203 273.67C138.222 273.344 137.405 272.936 136.67 272.366C135.935 271.795 135.445 271.062 135.036 270.165C134.628 269.269 134.464 268.291 134.464 267.068C134.464 265.764 134.709 264.705 135.199 263.808C135.69 262.912 136.425 262.097 137.405 261.526C138.386 260.956 139.611 260.467 141.082 260.141C142.552 259.815 144.268 259.734 146.147 259.734H148.271V258.348C148.271 257.696 148.19 257.044 148.026 256.555C147.863 256.066 147.699 255.577 147.373 255.251C147.046 254.925 146.637 254.681 146.065 254.518C145.575 254.355 144.922 254.273 144.105 254.273C143.043 254.273 142.144 254.355 141.327 254.599C140.51 254.844 139.775 255.088 139.203 255.333C138.549 255.577 138.059 255.822 137.65 256.066C137.242 256.311 136.915 256.392 136.67 256.392C136.507 256.392 136.343 256.311 136.18 256.229C136.016 256.148 135.935 255.985 135.853 255.74C135.771 255.496 135.69 255.251 135.608 254.925C135.526 254.599 135.526 254.273 135.526 253.866C135.526 253.377 135.526 252.969 135.608 252.643C135.69 252.317 135.853 252.073 136.098 251.828C136.343 251.584 136.752 251.339 137.324 251.013C137.895 250.769 138.549 250.443 139.284 250.198C140.02 249.954 140.918 249.791 141.817 249.628C142.716 249.465 143.614 249.383 144.595 249.383C146.311 249.383 147.781 249.546 149.007 249.872C150.232 250.198 151.212 250.687 152.029 251.421C152.846 252.073 153.418 252.969 153.745 254.11C154.072 255.251 154.317 256.474 154.317 258.022V272.855H154.399ZM148.435 263.564H146.065C145.085 263.564 144.186 263.645 143.533 263.808C142.797 263.971 142.226 264.134 141.817 264.46C141.409 264.786 141.082 265.112 140.837 265.52C140.673 265.927 140.51 266.416 140.51 266.905C140.51 267.802 140.837 268.535 141.409 269.024C141.98 269.513 142.797 269.839 143.778 269.839C144.677 269.839 145.412 269.595 146.147 269.187C146.882 268.78 147.618 268.128 148.353 267.231V263.564H148.435Z" fill="white"/>
<path d="M174.578 253.051C174.578 253.621 174.578 254.11 174.497 254.518C174.497 254.925 174.415 255.17 174.333 255.414C174.252 255.659 174.17 255.74 174.088 255.822C174.007 255.903 173.843 255.903 173.68 255.903C173.516 255.903 173.435 255.903 173.271 255.822C173.108 255.74 172.944 255.74 172.699 255.659C172.536 255.577 172.291 255.496 172.046 255.496C171.801 255.414 171.556 255.414 171.229 255.414C170.902 255.414 170.575 255.496 170.167 255.659C169.84 255.822 169.431 255.985 169.105 256.311C168.778 256.637 168.369 256.962 167.961 257.451C167.552 257.94 167.144 258.511 166.654 259.244V272.773C166.654 272.936 166.572 273.099 166.49 273.181C166.408 273.262 166.245 273.425 166 273.507C165.755 273.588 165.428 273.67 165.02 273.67C164.611 273.67 164.121 273.751 163.549 273.751C162.977 273.751 162.487 273.751 162.078 273.67C161.67 273.588 161.343 273.588 161.18 273.507C160.935 273.425 160.771 273.344 160.69 273.181C160.608 273.099 160.526 272.936 160.526 272.773V251.013C160.526 250.85 160.526 250.687 160.608 250.606C160.69 250.524 160.853 250.361 161.016 250.28C161.261 250.198 161.507 250.117 161.833 250.117C162.16 250.117 162.569 250.035 163.059 250.035C163.549 250.035 164.039 250.035 164.366 250.117C164.693 250.117 164.938 250.198 165.183 250.28C165.346 250.361 165.51 250.443 165.591 250.606C165.673 250.687 165.673 250.85 165.673 251.013V253.703C166.245 252.888 166.817 252.236 167.307 251.665C167.797 251.095 168.288 250.687 168.778 250.443C169.268 250.117 169.676 249.954 170.167 249.791C170.657 249.709 171.065 249.628 171.556 249.628C171.801 249.628 171.964 249.628 172.209 249.628C172.454 249.628 172.699 249.709 172.944 249.709C173.19 249.791 173.435 249.791 173.598 249.872C173.761 249.954 173.925 250.035 174.007 250.117C174.088 250.198 174.17 250.28 174.17 250.361C174.17 250.443 174.252 250.606 174.252 250.769C174.252 250.932 174.333 251.176 174.333 251.502C174.497 251.991 174.578 252.48 174.578 253.051Z" fill="white"/>
<path d="M191.245 270.573C191.245 271.306 191.163 271.795 191.082 272.203C191 272.61 190.837 272.855 190.755 273.018C190.592 273.181 190.428 273.344 190.101 273.425C189.856 273.507 189.448 273.67 189.121 273.751C188.712 273.833 188.304 273.914 187.895 273.996C187.487 274.077 186.997 274.077 186.507 274.077C185.281 274.077 184.219 273.914 183.32 273.588C182.422 273.262 181.686 272.773 181.114 272.203C180.543 271.551 180.134 270.736 179.807 269.758C179.562 268.78 179.399 267.639 179.399 266.335V255.17H176.784C176.458 255.17 176.212 255.007 176.049 254.599C175.886 254.192 175.804 253.621 175.804 252.725C175.804 252.236 175.804 251.828 175.886 251.502C175.886 251.176 175.967 250.932 176.049 250.769C176.131 250.606 176.212 250.443 176.376 250.361C176.458 250.28 176.621 250.28 176.784 250.28H179.399V245.471C179.399 245.308 179.48 245.145 179.562 245.064C179.644 244.901 179.807 244.819 180.052 244.738C180.297 244.656 180.624 244.575 181.033 244.575C181.441 244.575 181.931 244.493 182.503 244.493C183.075 244.493 183.565 244.493 183.974 244.575C184.382 244.656 184.709 244.656 184.873 244.738C185.118 244.819 185.281 244.901 185.363 245.064C185.444 245.227 185.526 245.308 185.526 245.471V250.28H190.265C190.428 250.28 190.592 250.28 190.673 250.361C190.755 250.443 190.918 250.606 191 250.769C191.082 250.932 191.163 251.176 191.163 251.502C191.163 251.828 191.245 252.236 191.245 252.725C191.245 253.621 191.163 254.273 191 254.599C190.837 255.007 190.592 255.17 190.265 255.17H185.526V265.357C185.526 266.579 185.69 267.394 186.098 268.046C186.507 268.617 187.16 268.943 188.059 268.943C188.386 268.943 188.712 268.943 188.958 268.861C189.203 268.78 189.448 268.78 189.693 268.698C189.938 268.617 190.101 268.535 190.183 268.535C190.346 268.454 190.428 268.454 190.592 268.454C190.673 268.454 190.755 268.454 190.837 268.535C190.918 268.617 191 268.698 191.082 268.861C191.163 269.024 191.163 269.269 191.245 269.595C191.163 269.758 191.245 270.165 191.245 270.573Z" fill="white"/>
<path d="M229.154 268.78C229.154 269.187 229.154 269.513 229.154 269.839C229.154 270.165 229.072 270.328 229.072 270.573C228.99 270.736 228.99 270.98 228.908 271.062C228.827 271.225 228.663 271.388 228.5 271.551C228.337 271.714 228.01 271.958 227.438 272.284C226.948 272.61 226.294 272.855 225.559 273.099C224.824 273.344 224.007 273.588 223.026 273.751C222.046 273.914 221.065 273.996 219.922 273.996C217.797 273.996 215.837 273.67 214.039 273.018C212.324 272.366 210.853 271.388 209.627 270.002C208.402 268.698 207.503 267.068 206.85 265.031C206.196 263.075 205.869 260.712 205.869 258.104C205.869 255.414 206.196 253.051 206.931 250.932C207.667 248.894 208.647 247.101 209.954 245.716C211.261 244.33 212.814 243.271 214.611 242.538C216.408 241.804 218.369 241.478 220.575 241.478C221.474 241.478 222.291 241.56 223.108 241.723C223.925 241.886 224.66 242.049 225.395 242.293C226.049 242.537 226.703 242.782 227.275 243.108C227.846 243.434 228.173 243.678 228.418 243.923C228.663 244.167 228.827 244.33 228.908 244.493C228.99 244.656 229.072 244.819 229.072 245.064C229.154 245.308 229.154 245.553 229.154 245.879C229.154 246.205 229.154 246.531 229.154 247.02C229.154 247.509 229.154 247.916 229.072 248.242C229.072 248.568 228.99 248.894 228.908 249.057C228.827 249.22 228.745 249.383 228.582 249.546C228.5 249.628 228.337 249.709 228.173 249.709C227.928 249.709 227.601 249.546 227.275 249.302C226.866 249.057 226.376 248.731 225.804 248.324C225.232 247.998 224.497 247.672 223.68 247.346C222.863 247.101 221.882 246.938 220.739 246.938C219.513 246.938 218.369 247.183 217.389 247.672C216.408 248.161 215.591 248.894 214.856 249.872C214.203 250.85 213.631 251.991 213.304 253.295C212.977 254.599 212.732 256.148 212.732 257.859C212.732 259.734 212.895 261.282 213.304 262.667C213.712 264.053 214.203 265.112 214.938 266.009C215.673 266.905 216.49 267.557 217.471 267.965C218.451 268.372 219.595 268.617 220.82 268.617C221.964 268.617 222.944 268.454 223.761 268.209C224.578 267.965 225.314 267.639 225.886 267.313C226.457 266.987 226.948 266.661 227.356 266.416C227.765 266.172 228.01 266.009 228.255 266.009C228.418 266.009 228.582 266.009 228.663 266.09C228.745 266.172 228.827 266.253 228.908 266.498C228.99 266.742 228.99 266.987 229.072 267.313C229.154 267.639 229.154 268.209 229.154 268.78Z" fill="white"/>
<path d="M239.529 272.773C239.529 272.936 239.448 273.099 239.366 273.181C239.284 273.262 239.121 273.425 238.876 273.507C238.631 273.588 238.304 273.67 237.895 273.67C237.487 273.67 236.997 273.751 236.425 273.751C235.853 273.751 235.363 273.751 234.954 273.67C234.546 273.588 234.219 273.588 234.056 273.507C233.81 273.425 233.647 273.344 233.565 273.181C233.484 273.099 233.402 272.936 233.402 272.773V240.745C233.402 240.582 233.484 240.419 233.565 240.337C233.647 240.174 233.81 240.093 234.056 240.011C234.301 239.93 234.627 239.848 234.954 239.767C235.363 239.685 235.853 239.685 236.425 239.685C236.997 239.685 237.487 239.685 237.895 239.767C238.304 239.848 238.631 239.848 238.876 240.011C239.121 240.093 239.284 240.174 239.366 240.337C239.448 240.5 239.529 240.582 239.529 240.745V272.773Z" fill="white"/>
<path d="M267.716 261.689C267.716 263.564 267.471 265.194 266.98 266.742C266.49 268.291 265.755 269.595 264.775 270.654C263.794 271.714 262.569 272.61 261.016 273.181C259.546 273.751 257.748 274.077 255.788 274.077C253.827 274.077 252.193 273.833 250.722 273.262C249.252 272.692 248.108 271.958 247.128 270.899C246.147 269.839 245.494 268.617 245.003 267.15C244.513 265.683 244.35 263.971 244.35 262.015C244.35 260.141 244.595 258.511 245.085 256.962C245.575 255.414 246.311 254.11 247.291 253.051C248.271 251.991 249.497 251.095 251.049 250.524C252.52 249.954 254.317 249.628 256.278 249.628C258.239 249.628 259.954 249.872 261.343 250.443C262.814 250.932 263.958 251.747 264.856 252.806C265.755 253.866 266.49 255.088 266.98 256.555C267.471 258.022 267.716 259.733 267.716 261.689ZM261.343 261.934C261.343 260.874 261.261 259.896 261.098 259C260.935 258.103 260.608 257.288 260.199 256.637C259.791 255.985 259.219 255.414 258.565 255.088C257.912 254.762 257.013 254.518 256.033 254.518C255.134 254.518 254.317 254.681 253.663 255.007C253.01 255.333 252.438 255.822 251.948 256.474C251.539 257.126 251.212 257.859 250.967 258.755C250.722 259.652 250.641 260.711 250.641 261.852C250.641 262.912 250.722 263.89 250.886 264.786C251.049 265.683 251.376 266.498 251.784 267.15C252.193 267.802 252.765 268.291 253.418 268.698C254.072 269.024 254.971 269.269 255.951 269.269C256.85 269.269 257.667 269.106 258.402 268.78C259.137 268.454 259.627 267.965 260.118 267.313C260.526 266.661 260.853 265.927 261.098 265.031C261.261 264.134 261.343 263.075 261.343 261.934Z" fill="white"/>
<path d="M293.206 272.773C293.206 272.936 293.206 273.099 293.124 273.181C293.042 273.262 292.879 273.425 292.716 273.507C292.552 273.588 292.226 273.67 291.899 273.67C291.572 273.67 291.163 273.751 290.673 273.751C290.101 273.751 289.693 273.751 289.366 273.67C289.039 273.67 288.794 273.588 288.549 273.507C288.386 273.425 288.222 273.344 288.141 273.181C288.059 273.099 288.059 272.936 288.059 272.773V270.247C286.833 271.551 285.608 272.529 284.382 273.181C283.157 273.833 281.85 274.159 280.542 274.159C279.072 274.159 277.765 273.914 276.784 273.425C275.804 272.936 274.905 272.284 274.333 271.469C273.761 270.654 273.271 269.676 273.026 268.535C272.781 267.394 272.618 266.009 272.618 264.379V251.013C272.618 250.85 272.699 250.687 272.781 250.606C272.863 250.524 273.026 250.361 273.271 250.28C273.516 250.198 273.843 250.117 274.252 250.117C274.66 250.117 275.15 250.035 275.722 250.035C276.294 250.035 276.784 250.035 277.193 250.117C277.601 250.117 277.928 250.198 278.092 250.28C278.337 250.361 278.5 250.443 278.582 250.606C278.663 250.687 278.745 250.85 278.745 251.013V263.319C278.745 264.46 278.827 265.357 278.99 265.927C279.154 266.498 279.399 267.068 279.644 267.476C279.971 267.883 280.297 268.209 280.788 268.454C281.278 268.698 281.768 268.78 282.422 268.78C283.239 268.78 283.974 268.535 284.791 267.965C285.608 267.394 286.425 266.579 287.324 265.52V251.013C287.324 250.85 287.405 250.687 287.487 250.606C287.569 250.524 287.732 250.361 287.977 250.28C288.222 250.198 288.549 250.117 288.958 250.117C289.366 250.117 289.856 250.035 290.428 250.035C291 250.035 291.49 250.035 291.899 250.117C292.307 250.117 292.634 250.198 292.797 250.28C293.042 250.361 293.206 250.443 293.288 250.606C293.369 250.687 293.451 250.85 293.451 251.013V272.773H293.206Z" fill="white"/>
<path d="M320.003 272.773C320.003 272.936 320.003 273.099 319.922 273.262C319.84 273.425 319.677 273.507 319.513 273.588C319.35 273.67 319.023 273.751 318.696 273.751C318.369 273.751 317.961 273.833 317.471 273.833C316.98 273.833 316.49 273.833 316.163 273.751C315.837 273.751 315.592 273.67 315.346 273.588C315.183 273.507 315.02 273.425 314.938 273.262C314.856 273.099 314.775 273.018 314.775 272.773V270.328C313.631 271.551 312.487 272.447 311.262 273.099C310.036 273.751 308.647 274.077 307.177 274.077C305.543 274.077 304.154 273.751 302.928 273.099C301.784 272.447 300.886 271.632 300.15 270.491C299.415 269.432 298.925 268.128 298.598 266.661C298.271 265.194 298.108 263.645 298.108 262.097C298.108 260.141 298.353 258.43 298.762 256.881C299.17 255.333 299.742 254.029 300.559 252.969C301.376 251.91 302.356 251.013 303.5 250.443C304.726 249.872 306.033 249.546 307.585 249.546C308.811 249.546 309.873 249.791 310.935 250.28C311.915 250.769 312.896 251.502 313.876 252.48V240.745C313.876 240.582 313.958 240.419 314.039 240.337C314.121 240.174 314.284 240.093 314.529 240.011C314.775 239.93 315.101 239.848 315.51 239.767C315.918 239.685 316.409 239.685 316.98 239.685C317.552 239.685 318.043 239.685 318.451 239.767C318.86 239.848 319.186 239.848 319.35 240.011C319.595 240.093 319.758 240.174 319.84 240.337C319.922 240.5 320.003 240.582 320.003 240.745V272.773ZM313.958 258.267C313.059 257.126 312.242 256.311 311.425 255.74C310.608 255.17 309.791 254.844 308.892 254.844C308.075 254.844 307.422 255.007 306.85 255.414C306.278 255.822 305.788 256.311 305.461 257.044C305.134 257.696 304.889 258.43 304.644 259.245C304.399 260.06 304.399 260.874 304.399 261.771C304.399 262.667 304.48 263.564 304.644 264.46C304.807 265.357 305.052 266.09 305.379 266.742C305.706 267.394 306.196 267.965 306.686 268.372C307.258 268.78 307.912 268.943 308.811 268.943C309.219 268.943 309.628 268.861 310.036 268.78C310.445 268.698 310.853 268.454 311.262 268.209C311.67 267.965 312.079 267.557 312.569 267.15C312.977 266.742 313.467 266.172 314.039 265.52V258.267H313.958Z" fill="white"/>
<path d="M358.892 244.738C358.892 245.227 358.892 245.634 358.811 245.96C358.729 246.286 358.729 246.531 358.647 246.775C358.565 246.938 358.484 247.101 358.32 247.264C358.239 247.346 358.075 247.427 357.912 247.427H349.987V272.855C349.987 273.018 349.905 273.181 349.824 273.262C349.742 273.425 349.579 273.507 349.333 273.588C349.088 273.67 348.762 273.751 348.353 273.751C347.945 273.751 347.454 273.833 346.801 273.833C346.147 273.833 345.657 273.833 345.248 273.751C344.84 273.67 344.513 273.67 344.268 273.588C344.023 273.507 343.86 273.425 343.778 273.262C343.696 273.099 343.614 273.018 343.614 272.855V247.427H335.69C335.526 247.427 335.363 247.346 335.281 247.264C335.199 247.183 335.036 247.02 334.954 246.775C334.873 246.612 334.791 246.286 334.791 245.96C334.709 245.634 334.709 245.227 334.709 244.738C334.709 244.249 334.709 243.841 334.791 243.515C334.791 243.189 334.873 242.863 334.954 242.7C335.036 242.537 335.118 242.374 335.281 242.293C335.363 242.211 335.526 242.13 335.69 242.13H357.912C358.075 242.13 358.157 242.211 358.32 242.293C358.484 242.374 358.565 242.537 358.647 242.7C358.729 242.863 358.811 243.189 358.811 243.515C358.811 243.841 358.892 244.249 358.892 244.738Z" fill="white"/>
<path d="M399.415 272.692C399.415 272.855 399.333 273.018 399.252 273.099C399.17 273.262 399.007 273.344 398.761 273.425C398.516 273.507 398.19 273.588 397.781 273.588C397.373 273.588 396.882 273.67 396.31 273.67C395.739 273.67 395.248 273.67 394.84 273.588C394.431 273.507 394.105 273.507 393.941 273.425C393.696 273.344 393.533 273.262 393.451 273.099C393.369 272.936 393.288 272.855 393.288 272.692V247.02H393.206L384.056 272.61C383.974 272.855 383.892 273.018 383.729 273.099C383.565 273.262 383.402 273.344 383.157 273.425C382.912 273.507 382.585 273.588 382.176 273.588C381.768 273.588 381.278 273.588 380.788 273.588C380.216 273.588 379.725 273.588 379.399 273.507C378.99 273.507 378.663 273.425 378.418 273.344C378.173 273.262 377.928 273.181 377.846 273.018C377.683 272.855 377.601 272.773 377.52 272.529L368.696 246.938H368.614V272.61C368.614 272.773 368.533 272.936 368.451 273.018C368.369 273.181 368.206 273.262 367.961 273.344C367.716 273.425 367.389 273.507 367.062 273.507C366.654 273.588 366.163 273.588 365.592 273.588C365.02 273.588 364.529 273.588 364.121 273.507C363.712 273.425 363.386 273.425 363.141 273.344C362.895 273.262 362.732 273.181 362.65 273.018C362.569 272.855 362.487 272.773 362.487 272.61V244.575C362.487 243.76 362.732 243.108 363.141 242.701C363.549 242.293 364.203 242.049 364.938 242.049H369.105C369.84 242.049 370.493 242.13 371.065 242.212C371.637 242.293 372.046 242.538 372.454 242.782C372.863 243.027 373.19 243.434 373.435 243.923C373.68 244.412 373.925 244.982 374.088 245.634L380.951 264.379H381.033L388.141 245.634C388.386 244.982 388.549 244.412 388.876 243.923C389.121 243.434 389.448 243.108 389.775 242.782C390.101 242.456 390.51 242.293 390.918 242.13C391.327 241.967 391.899 241.967 392.471 241.967H396.801C397.209 241.967 397.618 242.049 397.944 242.13C398.271 242.212 398.516 242.375 398.761 242.619C398.925 242.864 399.088 243.108 399.252 243.434C399.333 243.76 399.415 244.086 399.415 244.493V272.692Z" fill="white"/>
<path d="M424.987 264.134C424.987 265.764 424.66 267.231 424.088 268.454C423.435 269.676 422.618 270.736 421.556 271.551C420.493 272.366 419.268 273.018 417.879 273.425C416.49 273.833 414.938 274.077 413.304 274.077C412.242 274.077 411.18 273.996 410.281 273.833C409.382 273.67 408.484 273.425 407.83 273.181C407.095 272.936 406.523 272.692 406.033 272.366C405.543 272.121 405.216 271.877 404.971 271.632C404.726 271.388 404.644 271.143 404.48 270.736C404.317 270.328 404.317 269.758 404.317 269.024C404.317 268.535 404.317 268.128 404.399 267.72C404.399 267.394 404.48 267.068 404.562 266.905C404.644 266.661 404.726 266.579 404.889 266.416C405.052 266.253 405.134 266.253 405.297 266.253C405.543 266.253 405.869 266.416 406.278 266.661C406.686 266.905 407.258 267.231 407.912 267.557C408.565 267.883 409.301 268.209 410.281 268.454C411.18 268.698 412.242 268.861 413.386 268.861C414.203 268.861 414.856 268.78 415.51 268.617C416.163 268.454 416.654 268.128 417.062 267.802C417.471 267.476 417.797 267.068 418.043 266.498C418.288 266.009 418.369 265.438 418.369 264.786C418.369 264.053 418.206 263.483 417.797 262.912C417.389 262.423 416.899 261.934 416.245 261.527C415.592 261.119 414.938 260.793 414.121 260.386C413.304 260.06 412.487 259.652 411.67 259.245C410.853 258.837 410.036 258.43 409.219 257.941C408.402 257.452 407.748 256.881 407.095 256.148C406.441 255.496 405.951 254.681 405.543 253.703C405.134 252.725 404.971 251.665 404.971 250.28C404.971 248.731 405.216 247.427 405.788 246.286C406.36 245.146 407.095 244.168 408.075 243.434C409.056 242.701 410.118 242.13 411.425 241.723C412.732 241.315 414.121 241.152 415.51 241.152C416.245 241.152 416.98 241.234 417.716 241.315C418.451 241.397 419.186 241.56 419.84 241.804C420.494 242.049 421.065 242.212 421.556 242.456C422.046 242.701 422.373 242.864 422.536 243.027C422.699 243.19 422.781 243.353 422.863 243.434C422.944 243.516 422.944 243.679 423.026 243.923C423.026 244.086 423.108 244.331 423.108 244.657C423.108 244.901 423.108 245.308 423.108 245.716C423.108 246.205 423.108 246.612 423.108 246.938C423.108 247.264 423.026 247.509 423.026 247.753C422.944 247.998 422.863 248.079 422.781 248.242C422.699 248.324 422.536 248.405 422.373 248.405C422.209 248.405 421.882 248.324 421.556 248.079C421.147 247.835 420.657 247.59 420.085 247.346C419.513 247.101 418.859 246.857 418.124 246.612C417.389 246.368 416.572 246.286 415.673 246.286C414.938 246.286 414.366 246.368 413.876 246.531C413.386 246.694 412.895 246.938 412.569 247.264C412.242 247.59 411.997 247.916 411.752 248.324C411.588 248.731 411.507 249.22 411.507 249.628C411.507 250.361 411.67 250.932 412.078 251.421C412.487 251.91 412.977 252.399 413.631 252.806C414.284 253.214 415.02 253.54 415.837 253.947C416.654 254.273 417.471 254.681 418.288 255.088C419.105 255.496 420.003 255.903 420.739 256.392C421.556 256.881 422.291 257.452 422.944 258.185C423.598 258.837 424.088 259.652 424.497 260.63C424.824 261.771 424.987 262.831 424.987 264.134Z" fill="white"/>
</svg>
